%TF.GenerationSoftware,KiCad,Pcbnew,5.1.10*%
%TF.CreationDate,2021-08-02T12:23:09+02:00*%
%TF.ProjectId,DAD 02,44414420-3032-42e6-9b69-6361645f7063,1.0*%
%TF.SameCoordinates,Original*%
%TF.FileFunction,Soldermask,Top*%
%TF.FilePolarity,Negative*%
%FSLAX46Y46*%
G04 Gerber Fmt 4.6, Leading zero omitted, Abs format (unit mm)*
G04 Created by KiCad (PCBNEW 5.1.10) date 2021-08-02 12:23:09*
%MOMM*%
%LPD*%
G01*
G04 APERTURE LIST*
%ADD10R,1.600000X1.600000*%
%ADD11O,1.600000X1.600000*%
%ADD12C,1.600000*%
%ADD13O,2.200000X2.200000*%
%ADD14R,2.200000X2.200000*%
%ADD15C,3.200000*%
%ADD16R,1.700000X1.700000*%
%ADD17O,1.700000X1.700000*%
%ADD18R,3.000000X3.000000*%
%ADD19C,3.000000*%
%ADD20C,2.340000*%
%ADD21R,2.000000X1.905000*%
%ADD22O,2.000000X1.905000*%
%ADD23C,1.200000*%
G04 APERTURE END LIST*
D10*
%TO.C,A1*%
X54610000Y-57150000D03*
D11*
X39370000Y-24130000D03*
X54610000Y-54610000D03*
X39370000Y-26670000D03*
X54610000Y-52070000D03*
X39370000Y-29210000D03*
X54610000Y-49530000D03*
X39370000Y-31750000D03*
X54610000Y-46990000D03*
X39370000Y-34290000D03*
X54610000Y-44450000D03*
X39370000Y-36830000D03*
X54610000Y-41910000D03*
X39370000Y-39370000D03*
X54610000Y-39370000D03*
X39370000Y-41910000D03*
X54610000Y-36830000D03*
X39370000Y-44450000D03*
X54610000Y-34290000D03*
X39370000Y-46990000D03*
X54610000Y-31750000D03*
X39370000Y-49530000D03*
X54610000Y-29210000D03*
X39370000Y-52070000D03*
X54610000Y-26670000D03*
X39370000Y-54610000D03*
X54610000Y-24130000D03*
X39370000Y-57150000D03*
X54610000Y-21590000D03*
X39370000Y-21590000D03*
%TD*%
D12*
%TO.C,C1*%
X31710000Y-45720000D03*
D10*
X29210000Y-45720000D03*
%TD*%
%TO.C,C2*%
X29210000Y-55880000D03*
D12*
X31710000Y-55880000D03*
%TD*%
D13*
%TO.C,D1*%
X33020000Y-26670000D03*
D14*
X33020000Y-36830000D03*
%TD*%
%TO.C,D2*%
X17780000Y-36830000D03*
D13*
X17780000Y-26670000D03*
%TD*%
%TO.C,D3*%
X27940000Y-36830000D03*
D14*
X27940000Y-26670000D03*
%TD*%
%TO.C,D4*%
X22860000Y-26670000D03*
D13*
X22860000Y-36830000D03*
%TD*%
D10*
%TO.C,D5*%
X76200000Y-34290000D03*
D11*
X76200000Y-41910000D03*
%TD*%
D15*
%TO.C,H1*%
X19050000Y-19050000D03*
%TD*%
%TO.C,H2*%
X96520000Y-19050000D03*
%TD*%
%TO.C,H3*%
X19050000Y-68580000D03*
%TD*%
%TO.C,H4*%
X96520000Y-68580000D03*
%TD*%
D16*
%TO.C,J1*%
X62230000Y-49530000D03*
D17*
X62230000Y-52070000D03*
X62230000Y-54610000D03*
X62230000Y-57150000D03*
%TD*%
D18*
%TO.C,J2*%
X33020000Y-19050000D03*
D19*
X27940000Y-19050000D03*
%TD*%
D18*
%TO.C,J3*%
X88900000Y-19050000D03*
D19*
X83820000Y-19050000D03*
%TD*%
D16*
%TO.C,J4*%
X17780000Y-55880000D03*
D17*
X20320000Y-55880000D03*
X17780000Y-58420000D03*
X20320000Y-58420000D03*
X17780000Y-60960000D03*
X20320000Y-60960000D03*
%TD*%
D19*
%TO.C,J5*%
X33020000Y-68580000D03*
X38100000Y-68580000D03*
D18*
X27940000Y-68580000D03*
D19*
X43180000Y-68580000D03*
X48260000Y-68580000D03*
X53340000Y-68580000D03*
X58420000Y-68580000D03*
X63500000Y-68580000D03*
%TD*%
%TO.C,J6*%
X96520000Y-50800000D03*
D18*
X96520000Y-55880000D03*
%TD*%
D16*
%TO.C,J7*%
X69850000Y-68580000D03*
D17*
X72390000Y-68580000D03*
X74930000Y-68580000D03*
X77470000Y-68580000D03*
X80010000Y-68580000D03*
X82550000Y-68580000D03*
X85090000Y-68580000D03*
X87630000Y-68580000D03*
%TD*%
D11*
%TO.C,R1*%
X69850000Y-27940000D03*
D12*
X69850000Y-17780000D03*
%TD*%
%TO.C,R2*%
X76200000Y-17780000D03*
D11*
X76200000Y-27940000D03*
%TD*%
D12*
%TO.C,R3*%
X62230000Y-29210000D03*
D11*
X62230000Y-16510000D03*
%TD*%
D12*
%TO.C,R4*%
X69850000Y-48260000D03*
D11*
X69850000Y-58420000D03*
%TD*%
D20*
%TO.C,RV1*%
X82550000Y-53420000D03*
X80050000Y-55920000D03*
X82550000Y-58420000D03*
%TD*%
D21*
%TO.C,U1*%
X19050000Y-48260000D03*
D22*
X19050000Y-45720000D03*
X19050000Y-43180000D03*
%TD*%
D10*
%TO.C,U2*%
X62230000Y-34290000D03*
D11*
X69850000Y-41910000D03*
X62230000Y-36830000D03*
X69850000Y-39370000D03*
X62230000Y-39370000D03*
X69850000Y-36830000D03*
X62230000Y-41910000D03*
X69850000Y-34290000D03*
%TD*%
D23*
%TO.C,U3*%
X81280000Y-27940000D03*
X81280000Y-45720000D03*
X83820000Y-27940000D03*
X83820000Y-45720000D03*
X86360000Y-27940000D03*
X86360000Y-45720000D03*
X88900000Y-27940000D03*
X88900000Y-45720000D03*
X91440000Y-27940000D03*
X91440000Y-45720000D03*
X93980000Y-27940000D03*
X93980000Y-45720000D03*
X96520000Y-27940000D03*
X96520000Y-45720000D03*
X99060000Y-27940000D03*
X99060000Y-45720000D03*
%TD*%
M02*
