%TF.GenerationSoftware,KiCad,Pcbnew,5.1.10*%
%TF.CreationDate,2021-08-02T12:23:09+02:00*%
%TF.ProjectId,DAD 02,44414420-3032-42e6-9b69-6361645f7063,1.0*%
%TF.SameCoordinates,Original*%
%TF.FileFunction,Other,User*%
%FSLAX46Y46*%
G04 Gerber Fmt 4.6, Leading zero omitted, Abs format (unit mm)*
G04 Created by KiCad (PCBNEW 5.1.10) date 2021-08-02 12:23:09*
%MOMM*%
%LPD*%
G01*
G04 APERTURE LIST*
%ADD10C,0.050000*%
G04 APERTURE END LIST*
D10*
%TO.C,A1*%
X37860000Y-14990000D02*
X56140000Y-14990000D01*
X37860000Y-14990000D02*
X37860000Y-61210000D01*
X56140000Y-61210000D02*
X56140000Y-14990000D01*
X56140000Y-61210000D02*
X37860000Y-61210000D01*
%TO.C,C1*%
X33860000Y-45720000D02*
G75*
G03*
X33860000Y-45720000I-3400000J0D01*
G01*
%TO.C,C2*%
X33860000Y-55880000D02*
G75*
G03*
X33860000Y-55880000I-3400000J0D01*
G01*
%TO.C,D1*%
X31420000Y-38180000D02*
X34620000Y-38180000D01*
X34620000Y-38180000D02*
X34620000Y-25320000D01*
X34620000Y-25320000D02*
X31420000Y-25320000D01*
X31420000Y-25320000D02*
X31420000Y-38180000D01*
%TO.C,D2*%
X16180000Y-25320000D02*
X16180000Y-38180000D01*
X19380000Y-25320000D02*
X16180000Y-25320000D01*
X19380000Y-38180000D02*
X19380000Y-25320000D01*
X16180000Y-38180000D02*
X19380000Y-38180000D01*
%TO.C,D3*%
X29540000Y-25320000D02*
X26340000Y-25320000D01*
X26340000Y-25320000D02*
X26340000Y-38180000D01*
X26340000Y-38180000D02*
X29540000Y-38180000D01*
X29540000Y-38180000D02*
X29540000Y-25320000D01*
%TO.C,D4*%
X24460000Y-38180000D02*
X24460000Y-25320000D01*
X21260000Y-38180000D02*
X24460000Y-38180000D01*
X21260000Y-25320000D02*
X21260000Y-38180000D01*
X24460000Y-25320000D02*
X21260000Y-25320000D01*
%TO.C,D5*%
X77450000Y-42960000D02*
X77450000Y-33240000D01*
X74950000Y-42960000D02*
X77450000Y-42960000D01*
X74950000Y-33240000D02*
X74950000Y-42960000D01*
X77450000Y-33240000D02*
X74950000Y-33240000D01*
%TO.C,H1*%
X22500000Y-19050000D02*
G75*
G03*
X22500000Y-19050000I-3450000J0D01*
G01*
%TO.C,H2*%
X99970000Y-19050000D02*
G75*
G03*
X99970000Y-19050000I-3450000J0D01*
G01*
%TO.C,H3*%
X22500000Y-68580000D02*
G75*
G03*
X22500000Y-68580000I-3450000J0D01*
G01*
%TO.C,H4*%
X99970000Y-68580000D02*
G75*
G03*
X99970000Y-68580000I-3450000J0D01*
G01*
%TO.C,J1*%
X64030000Y-47730000D02*
X60430000Y-47730000D01*
X64030000Y-58930000D02*
X64030000Y-47730000D01*
X60430000Y-58930000D02*
X64030000Y-58930000D01*
X60430000Y-47730000D02*
X60430000Y-58930000D01*
%TO.C,J2*%
X25230000Y-15050000D02*
X35730000Y-15050000D01*
X25230000Y-15050000D02*
X25230000Y-23050000D01*
X35730000Y-23050000D02*
X35730000Y-15050000D01*
X35730000Y-23050000D02*
X25230000Y-23050000D01*
%TO.C,J3*%
X81110000Y-15050000D02*
X91610000Y-15050000D01*
X81110000Y-15050000D02*
X81110000Y-23050000D01*
X91610000Y-23050000D02*
X91610000Y-15050000D01*
X91610000Y-23050000D02*
X81110000Y-23050000D01*
%TO.C,J4*%
X22130000Y-54080000D02*
X15980000Y-54080000D01*
X22130000Y-62730000D02*
X22130000Y-54080000D01*
X15980000Y-62730000D02*
X22130000Y-62730000D01*
X15980000Y-54080000D02*
X15980000Y-62730000D01*
%TO.C,J5*%
X56090000Y-72580000D02*
X66250000Y-72580000D01*
X56090000Y-64580000D02*
X66250000Y-64580000D01*
X56090000Y-72580000D02*
X25190000Y-72580000D01*
X66250000Y-72580000D02*
X66250000Y-64580000D01*
X25190000Y-64580000D02*
X25190000Y-72580000D01*
X25190000Y-64580000D02*
X56090000Y-64580000D01*
%TO.C,J6*%
X92520000Y-58590000D02*
X92520000Y-48090000D01*
X92520000Y-58590000D02*
X100520000Y-58590000D01*
X100520000Y-48090000D02*
X92520000Y-48090000D01*
X100520000Y-48090000D02*
X100520000Y-58590000D01*
%TO.C,J7*%
X68050000Y-66780000D02*
X68050000Y-70380000D01*
X89400000Y-66780000D02*
X68050000Y-66780000D01*
X89400000Y-70380000D02*
X89400000Y-66780000D01*
X68050000Y-70380000D02*
X89400000Y-70380000D01*
%TO.C,R1*%
X71350000Y-16730000D02*
X68350000Y-16730000D01*
X68350000Y-16730000D02*
X68350000Y-28990000D01*
X68350000Y-28990000D02*
X71350000Y-28990000D01*
X71350000Y-28990000D02*
X71350000Y-16730000D01*
%TO.C,R2*%
X77700000Y-28990000D02*
X77700000Y-16730000D01*
X74700000Y-28990000D02*
X77700000Y-28990000D01*
X74700000Y-16730000D02*
X74700000Y-28990000D01*
X77700000Y-16730000D02*
X74700000Y-16730000D01*
%TO.C,R3*%
X60380000Y-15460000D02*
X60380000Y-30260000D01*
X64080000Y-15460000D02*
X60380000Y-15460000D01*
X64080000Y-30260000D02*
X64080000Y-15460000D01*
X60380000Y-30260000D02*
X64080000Y-30260000D01*
%TO.C,R4*%
X71350000Y-59470000D02*
X71350000Y-47210000D01*
X68350000Y-59470000D02*
X71350000Y-59470000D01*
X68350000Y-47210000D02*
X68350000Y-59470000D01*
X71350000Y-47210000D02*
X68350000Y-47210000D01*
%TO.C,RV1*%
X77500000Y-61120000D02*
X84000000Y-61120000D01*
X77500000Y-50770000D02*
X77500000Y-61120000D01*
X84000000Y-50770000D02*
X77500000Y-50770000D01*
X84000000Y-61120000D02*
X84000000Y-50770000D01*
%TO.C,U1*%
X15650000Y-40470000D02*
X15650000Y-50970000D01*
X20560000Y-40470000D02*
X15650000Y-40470000D01*
X20560000Y-50970000D02*
X20560000Y-40470000D01*
X15650000Y-50970000D02*
X20560000Y-50970000D01*
%TO.C,U2*%
X70930000Y-32740000D02*
X61130000Y-32740000D01*
X70930000Y-43440000D02*
X70930000Y-32740000D01*
X61130000Y-43440000D02*
X70930000Y-43440000D01*
X61130000Y-32740000D02*
X61130000Y-43440000D01*
%TO.C,U3*%
X99910000Y-46570000D02*
X80430000Y-46570000D01*
X99910000Y-27090000D02*
X99910000Y-46570000D01*
X80430000Y-27090000D02*
X99910000Y-27090000D01*
%TD*%
M02*
