M48
; DRILL file {KiCad 5.1.10} date Mon Aug  2 12:23:24 2021
; FORMAT={3:3/ absolute / metric / suppress leading zeros}
; #@! TF.CreationDate,2021-08-02T12:23:24+02:00
; #@! TF.GenerationSoftware,Kicad,Pcbnew,5.1.10
; #@! TF.FileFunction,Plated,1,2,PTH
FMAT,2
METRIC,TZ
T1C0.800
T2C1.000
T3C1.100
T4C1.300
T5C1.520
%
G90
G05
T1
X29210Y-45720
X29210Y-55880
X31710Y-45720
X31710Y-55880
X62230Y-16510
X62230Y-29210
X62230Y-34290
X62230Y-36830
X62230Y-39370
X62230Y-41910
X69850Y-17780
X69850Y-27940
X69850Y-34290
X69850Y-36830
X69850Y-39370
X69850Y-41910
X69850Y-48260
X69850Y-58420
X76200Y-17780
X76200Y-27940
X76200Y-34290
X76200Y-41910
X81280Y-27940
X81280Y-45720
X83820Y-27940
X83820Y-45720
X86360Y-27940
X86360Y-45720
X88900Y-27940
X88900Y-45720
X91440Y-27940
X91440Y-45720
X93980Y-27940
X93980Y-45720
X96520Y-27940
X96520Y-45720
X99060Y-27940
X99060Y-45720
T2
X17780Y-55880
X17780Y-58420
X17780Y-60960
X20320Y-55880
X20320Y-58420
X20320Y-60960
X39370Y-21590
X39370Y-24130
X39370Y-26670
X39370Y-29210
X39370Y-31750
X39370Y-34290
X39370Y-36830
X39370Y-39370
X39370Y-41910
X39370Y-44450
X39370Y-46990
X39370Y-49530
X39370Y-52070
X39370Y-54610
X39370Y-57150
X54610Y-21590
X54610Y-24130
X54610Y-26670
X54610Y-29210
X54610Y-31750
X54610Y-34290
X54610Y-36830
X54610Y-39370
X54610Y-41910
X54610Y-44450
X54610Y-46990
X54610Y-49530
X54610Y-52070
X54610Y-54610
X54610Y-57150
X62230Y-49530
X62230Y-52070
X62230Y-54610
X62230Y-57150
X69850Y-68580
X72390Y-68580
X74930Y-68580
X77470Y-68580
X80010Y-68580
X82550Y-68580
X85090Y-68580
X87630Y-68580
T3
X17780Y-26670
X17780Y-36830
X19050Y-43180
X19050Y-45720
X19050Y-48260
X22860Y-26670
X22860Y-36830
X27940Y-26670
X27940Y-36830
X33020Y-26670
X33020Y-36830
T4
X80050Y-55920
X82550Y-53420
X82550Y-58420
T5
X27940Y-19050
X27940Y-68580
X33020Y-19050
X33020Y-68580
X38100Y-68580
X43180Y-68580
X48260Y-68580
X53340Y-68580
X58420Y-68580
X63500Y-68580
X83820Y-19050
X88900Y-19050
X96520Y-50800
X96520Y-55880
T0
M30
