%TF.GenerationSoftware,KiCad,Pcbnew,5.1.10*%
%TF.CreationDate,2021-08-02T12:23:09+02:00*%
%TF.ProjectId,DAD 02,44414420-3032-42e6-9b69-6361645f7063,1.0*%
%TF.SameCoordinates,Original*%
%TF.FileFunction,Copper,L1,Top*%
%TF.FilePolarity,Positive*%
%FSLAX46Y46*%
G04 Gerber Fmt 4.6, Leading zero omitted, Abs format (unit mm)*
G04 Created by KiCad (PCBNEW 5.1.10) date 2021-08-02 12:23:09*
%MOMM*%
%LPD*%
G01*
G04 APERTURE LIST*
%TA.AperFunction,ComponentPad*%
%ADD10R,1.600000X1.600000*%
%TD*%
%TA.AperFunction,ComponentPad*%
%ADD11O,1.600000X1.600000*%
%TD*%
%TA.AperFunction,ComponentPad*%
%ADD12C,1.600000*%
%TD*%
%TA.AperFunction,ComponentPad*%
%ADD13O,2.200000X2.200000*%
%TD*%
%TA.AperFunction,ComponentPad*%
%ADD14R,2.200000X2.200000*%
%TD*%
%TA.AperFunction,ComponentPad*%
%ADD15R,1.700000X1.700000*%
%TD*%
%TA.AperFunction,ComponentPad*%
%ADD16O,1.700000X1.700000*%
%TD*%
%TA.AperFunction,ComponentPad*%
%ADD17R,3.000000X3.000000*%
%TD*%
%TA.AperFunction,ComponentPad*%
%ADD18C,3.000000*%
%TD*%
%TA.AperFunction,ComponentPad*%
%ADD19C,2.340000*%
%TD*%
%TA.AperFunction,ComponentPad*%
%ADD20R,2.000000X1.905000*%
%TD*%
%TA.AperFunction,ComponentPad*%
%ADD21O,2.000000X1.905000*%
%TD*%
%TA.AperFunction,ComponentPad*%
%ADD22C,1.200000*%
%TD*%
%TA.AperFunction,Conductor*%
%ADD23C,0.500000*%
%TD*%
G04 APERTURE END LIST*
D10*
%TO.P,A1,1*%
%TO.N,Net-(A1-Pad1)*%
X54610000Y-57150000D03*
D11*
%TO.P,A1,17*%
%TO.N,Net-(A1-Pad17)*%
X39370000Y-24130000D03*
%TO.P,A1,2*%
%TO.N,Net-(A1-Pad2)*%
X54610000Y-54610000D03*
%TO.P,A1,18*%
%TO.N,Net-(A1-Pad18)*%
X39370000Y-26670000D03*
%TO.P,A1,3*%
%TO.N,Net-(A1-Pad3)*%
X54610000Y-52070000D03*
%TO.P,A1,19*%
%TO.N,BTN_MODE_A*%
X39370000Y-29210000D03*
%TO.P,A1,4*%
%TO.N,Net-(A1-Pad4)*%
X54610000Y-49530000D03*
%TO.P,A1,20*%
%TO.N,BTN_MODE_B*%
X39370000Y-31750000D03*
%TO.P,A1,5*%
%TO.N,DCC*%
X54610000Y-46990000D03*
%TO.P,A1,21*%
%TO.N,BTN_MODE_C*%
X39370000Y-34290000D03*
%TO.P,A1,6*%
%TO.N,BTN_A1*%
X54610000Y-44450000D03*
%TO.P,A1,22*%
%TO.N,Net-(A1-Pad22)*%
X39370000Y-36830000D03*
%TO.P,A1,7*%
%TO.N,BTN_A2*%
X54610000Y-41910000D03*
%TO.P,A1,23*%
%TO.N,Net-(A1-Pad23)*%
X39370000Y-39370000D03*
%TO.P,A1,8*%
%TO.N,BTN_B1*%
X54610000Y-39370000D03*
%TO.P,A1,24*%
%TO.N,Net-(A1-Pad24)*%
X39370000Y-41910000D03*
%TO.P,A1,9*%
%TO.N,BTN_B2*%
X54610000Y-36830000D03*
%TO.P,A1,25*%
%TO.N,Net-(A1-Pad25)*%
X39370000Y-44450000D03*
%TO.P,A1,10*%
%TO.N,BTN_C1*%
X54610000Y-34290000D03*
%TO.P,A1,26*%
%TO.N,VOL_POT*%
X39370000Y-46990000D03*
%TO.P,A1,11*%
%TO.N,BTN_C2*%
X54610000Y-31750000D03*
%TO.P,A1,27*%
%TO.N,Net-(A1-Pad27)*%
X39370000Y-49530000D03*
%TO.P,A1,12*%
%TO.N,BTN_RAND*%
X54610000Y-29210000D03*
%TO.P,A1,28*%
%TO.N,Net-(A1-Pad28)*%
X39370000Y-52070000D03*
%TO.P,A1,13*%
%TO.N,DFP_RX*%
X54610000Y-26670000D03*
%TO.P,A1,29*%
%TO.N,GND*%
X39370000Y-54610000D03*
%TO.P,A1,14*%
%TO.N,DFP_TX*%
X54610000Y-24130000D03*
%TO.P,A1,30*%
%TO.N,+5V*%
X39370000Y-57150000D03*
%TO.P,A1,15*%
%TO.N,Net-(A1-Pad15)*%
X54610000Y-21590000D03*
%TO.P,A1,16*%
%TO.N,Net-(A1-Pad16)*%
X39370000Y-21590000D03*
%TD*%
D12*
%TO.P,C1,2*%
%TO.N,GND*%
X31710000Y-45720000D03*
D10*
%TO.P,C1,1*%
%TO.N,VCC*%
X29210000Y-45720000D03*
%TD*%
%TO.P,C2,1*%
%TO.N,+5V*%
X29210000Y-55880000D03*
D12*
%TO.P,C2,2*%
%TO.N,GND*%
X31710000Y-55880000D03*
%TD*%
D13*
%TO.P,D1,2*%
%TO.N,Net-(D1-Pad2)*%
X33020000Y-26670000D03*
D14*
%TO.P,D1,1*%
%TO.N,VCC*%
X33020000Y-36830000D03*
%TD*%
%TO.P,D2,1*%
%TO.N,VCC*%
X17780000Y-36830000D03*
D13*
%TO.P,D2,2*%
%TO.N,Net-(D2-Pad2)*%
X17780000Y-26670000D03*
%TD*%
%TO.P,D3,2*%
%TO.N,GND*%
X27940000Y-36830000D03*
D14*
%TO.P,D3,1*%
%TO.N,Net-(D1-Pad2)*%
X27940000Y-26670000D03*
%TD*%
%TO.P,D4,1*%
%TO.N,Net-(D2-Pad2)*%
X22860000Y-26670000D03*
D13*
%TO.P,D4,2*%
%TO.N,GND*%
X22860000Y-36830000D03*
%TD*%
D10*
%TO.P,D5,1*%
%TO.N,Net-(D5-Pad1)*%
X76200000Y-34290000D03*
D11*
%TO.P,D5,2*%
%TO.N,Net-(D5-Pad2)*%
X76200000Y-41910000D03*
%TD*%
D15*
%TO.P,J1,1*%
%TO.N,VCC*%
X62230000Y-49530000D03*
D16*
%TO.P,J1,2*%
%TO.N,Net-(A1-Pad2)*%
X62230000Y-52070000D03*
%TO.P,J1,3*%
%TO.N,Net-(A1-Pad1)*%
X62230000Y-54610000D03*
%TO.P,J1,4*%
%TO.N,GND*%
X62230000Y-57150000D03*
%TD*%
D17*
%TO.P,J2,1*%
%TO.N,Net-(D1-Pad2)*%
X33020000Y-19050000D03*
D18*
%TO.P,J2,2*%
%TO.N,Net-(D2-Pad2)*%
X27940000Y-19050000D03*
%TD*%
D17*
%TO.P,J3,1*%
%TO.N,Net-(J3-Pad1)*%
X88900000Y-19050000D03*
D18*
%TO.P,J3,2*%
%TO.N,Net-(D5-Pad2)*%
X83820000Y-19050000D03*
%TD*%
D15*
%TO.P,J4,1*%
%TO.N,GND*%
X17780000Y-55880000D03*
D16*
%TO.P,J4,2*%
%TO.N,BTN_MODE_A*%
X20320000Y-55880000D03*
%TO.P,J4,3*%
%TO.N,GND*%
X17780000Y-58420000D03*
%TO.P,J4,4*%
%TO.N,BTN_MODE_B*%
X20320000Y-58420000D03*
%TO.P,J4,5*%
%TO.N,GND*%
X17780000Y-60960000D03*
%TO.P,J4,6*%
%TO.N,BTN_MODE_C*%
X20320000Y-60960000D03*
%TD*%
D18*
%TO.P,J5,2*%
%TO.N,BTN_A2*%
X33020000Y-68580000D03*
%TO.P,J5,3*%
%TO.N,BTN_B1*%
X38100000Y-68580000D03*
D17*
%TO.P,J5,1*%
%TO.N,BTN_A1*%
X27940000Y-68580000D03*
D18*
%TO.P,J5,4*%
%TO.N,BTN_B2*%
X43180000Y-68580000D03*
%TO.P,J5,5*%
%TO.N,BTN_C1*%
X48260000Y-68580000D03*
%TO.P,J5,6*%
%TO.N,BTN_C2*%
X53340000Y-68580000D03*
%TO.P,J5,7*%
%TO.N,BTN_RAND*%
X58420000Y-68580000D03*
%TO.P,J5,8*%
%TO.N,GND*%
X63500000Y-68580000D03*
%TD*%
%TO.P,J6,2*%
%TO.N,Net-(J6-Pad2)*%
X96520000Y-50800000D03*
D17*
%TO.P,J6,1*%
%TO.N,Net-(J6-Pad1)*%
X96520000Y-55880000D03*
%TD*%
D15*
%TO.P,J7,1*%
%TO.N,BTN_A1*%
X69850000Y-68580000D03*
D16*
%TO.P,J7,2*%
%TO.N,BTN_A2*%
X72390000Y-68580000D03*
%TO.P,J7,3*%
%TO.N,BTN_B1*%
X74930000Y-68580000D03*
%TO.P,J7,4*%
%TO.N,BTN_B2*%
X77470000Y-68580000D03*
%TO.P,J7,5*%
%TO.N,BTN_C1*%
X80010000Y-68580000D03*
%TO.P,J7,6*%
%TO.N,BTN_C2*%
X82550000Y-68580000D03*
%TO.P,J7,7*%
%TO.N,BTN_RAND*%
X85090000Y-68580000D03*
%TO.P,J7,8*%
%TO.N,GND*%
X87630000Y-68580000D03*
%TD*%
D11*
%TO.P,R1,2*%
%TO.N,Net-(R1-Pad2)*%
X69850000Y-27940000D03*
D12*
%TO.P,R1,1*%
%TO.N,+5V*%
X69850000Y-17780000D03*
%TD*%
%TO.P,R2,1*%
%TO.N,+5V*%
X76200000Y-17780000D03*
D11*
%TO.P,R2,2*%
%TO.N,DCC*%
X76200000Y-27940000D03*
%TD*%
D12*
%TO.P,R3,1*%
%TO.N,Net-(D5-Pad1)*%
X62230000Y-29210000D03*
D11*
%TO.P,R3,2*%
%TO.N,Net-(J3-Pad1)*%
X62230000Y-16510000D03*
%TD*%
D12*
%TO.P,R4,1*%
%TO.N,Net-(R4-Pad1)*%
X69850000Y-48260000D03*
D11*
%TO.P,R4,2*%
%TO.N,DFP_TX*%
X69850000Y-58420000D03*
%TD*%
D19*
%TO.P,RV1,3*%
%TO.N,GND*%
X82550000Y-53420000D03*
%TO.P,RV1,2*%
%TO.N,VOL_POT*%
X80050000Y-55920000D03*
%TO.P,RV1,1*%
%TO.N,+5V*%
X82550000Y-58420000D03*
%TD*%
D20*
%TO.P,U1,1*%
%TO.N,VCC*%
X19050000Y-48260000D03*
D21*
%TO.P,U1,2*%
%TO.N,GND*%
X19050000Y-45720000D03*
%TO.P,U1,3*%
%TO.N,+5V*%
X19050000Y-43180000D03*
%TD*%
D10*
%TO.P,U2,1*%
%TO.N,Net-(U2-Pad1)*%
X62230000Y-34290000D03*
D11*
%TO.P,U2,5*%
%TO.N,GND*%
X69850000Y-41910000D03*
%TO.P,U2,2*%
%TO.N,Net-(D5-Pad1)*%
X62230000Y-36830000D03*
%TO.P,U2,6*%
%TO.N,DCC*%
X69850000Y-39370000D03*
%TO.P,U2,3*%
%TO.N,Net-(D5-Pad2)*%
X62230000Y-39370000D03*
%TO.P,U2,7*%
%TO.N,Net-(R1-Pad2)*%
X69850000Y-36830000D03*
%TO.P,U2,4*%
%TO.N,N/C*%
X62230000Y-41910000D03*
%TO.P,U2,8*%
%TO.N,+5V*%
X69850000Y-34290000D03*
%TD*%
D22*
%TO.P,U3,16*%
%TO.N,Net-(U3-Pad16)*%
X81280000Y-27940000D03*
%TO.P,U3,1*%
%TO.N,+5V*%
X81280000Y-45720000D03*
%TO.P,U3,15*%
%TO.N,Net-(U3-Pad15)*%
X83820000Y-27940000D03*
%TO.P,U3,2*%
%TO.N,Net-(R4-Pad1)*%
X83820000Y-45720000D03*
%TO.P,U3,14*%
%TO.N,Net-(U3-Pad14)*%
X86360000Y-27940000D03*
%TO.P,U3,3*%
%TO.N,DFP_RX*%
X86360000Y-45720000D03*
%TO.P,U3,13*%
%TO.N,Net-(U3-Pad13)*%
X88900000Y-27940000D03*
%TO.P,U3,4*%
%TO.N,Net-(U3-Pad4)*%
X88900000Y-45720000D03*
%TO.P,U3,12*%
%TO.N,Net-(U3-Pad12)*%
X91440000Y-27940000D03*
%TO.P,U3,5*%
%TO.N,Net-(U3-Pad5)*%
X91440000Y-45720000D03*
%TO.P,U3,11*%
%TO.N,Net-(U3-Pad11)*%
X93980000Y-27940000D03*
%TO.P,U3,6*%
%TO.N,Net-(J6-Pad1)*%
X93980000Y-45720000D03*
%TO.P,U3,10*%
%TO.N,Net-(U3-Pad10)*%
X96520000Y-27940000D03*
%TO.P,U3,7*%
%TO.N,GND*%
X96520000Y-45720000D03*
%TO.P,U3,9*%
%TO.N,Net-(U3-Pad9)*%
X99060000Y-27940000D03*
%TO.P,U3,8*%
%TO.N,Net-(J6-Pad2)*%
X99060000Y-45720000D03*
%TD*%
D23*
%TO.N,Net-(A1-Pad1)*%
X54610000Y-57150000D02*
X55860300Y-57150000D01*
X62230000Y-54610000D02*
X63536300Y-55916300D01*
X63536300Y-55916300D02*
X63536300Y-57696900D01*
X63536300Y-57696900D02*
X62777900Y-58455300D01*
X62777900Y-58455300D02*
X57165600Y-58455300D01*
X57165600Y-58455300D02*
X55860300Y-57150000D01*
%TO.N,Net-(A1-Pad2)*%
X54610000Y-54610000D02*
X55860300Y-54610000D01*
X62230000Y-52070000D02*
X58400300Y-52070000D01*
X58400300Y-52070000D02*
X55860300Y-54610000D01*
%TO.N,DCC*%
X69811500Y-38706300D02*
X69205200Y-38100000D01*
X69205200Y-38100000D02*
X61716500Y-38100000D01*
X61716500Y-38100000D02*
X55899600Y-43916900D01*
X55899600Y-43916900D02*
X55899600Y-44994000D01*
X55899600Y-44994000D02*
X55153900Y-45739700D01*
X55153900Y-45739700D02*
X54610000Y-45739700D01*
X69850000Y-38744800D02*
X69811500Y-38706300D01*
X76200000Y-29190300D02*
X72793800Y-32596500D01*
X72793800Y-32596500D02*
X72793800Y-35724000D01*
X72793800Y-35724000D02*
X69811500Y-38706300D01*
X76200000Y-27940000D02*
X76200000Y-29190300D01*
X54610000Y-46990000D02*
X54610000Y-45739700D01*
X69850000Y-39370000D02*
X69850000Y-38744800D01*
%TO.N,BTN_A1*%
X27940000Y-68580000D02*
X29890300Y-68580000D01*
X69850000Y-68580000D02*
X68549700Y-68580000D01*
X68549700Y-68580000D02*
X65126500Y-72003200D01*
X65126500Y-72003200D02*
X33313500Y-72003200D01*
X33313500Y-72003200D02*
X29890300Y-68580000D01*
%TO.N,BTN_A2*%
X72390000Y-68580000D02*
X71089600Y-67279600D01*
X71089600Y-67279600D02*
X68559500Y-67279600D01*
X68559500Y-67279600D02*
X64536300Y-71302800D01*
X64536300Y-71302800D02*
X35742800Y-71302800D01*
X35742800Y-71302800D02*
X33020000Y-68580000D01*
%TO.N,VOL_POT*%
X39370000Y-46990000D02*
X40620300Y-46990000D01*
X80050000Y-55920000D02*
X73755400Y-55920000D01*
X73755400Y-55920000D02*
X66039800Y-48204400D01*
X66039800Y-48204400D02*
X58253700Y-48204400D01*
X58253700Y-48204400D02*
X58198100Y-48260000D01*
X58198100Y-48260000D02*
X41890300Y-48260000D01*
X41890300Y-48260000D02*
X40620300Y-46990000D01*
%TO.N,BTN_C2*%
X53340000Y-68580000D02*
X55299200Y-70539200D01*
X55299200Y-70539200D02*
X64309400Y-70539200D01*
X64309400Y-70539200D02*
X68278400Y-66570200D01*
X68278400Y-66570200D02*
X80540200Y-66570200D01*
X80540200Y-66570200D02*
X82550000Y-68580000D01*
%TO.N,GND*%
X87630000Y-65853200D02*
X87630000Y-68580000D01*
X87630000Y-53420000D02*
X87630000Y-65853200D01*
X87630000Y-65853200D02*
X66226800Y-65853200D01*
X66226800Y-65853200D02*
X63500000Y-68580000D01*
X32980000Y-54610000D02*
X38119700Y-54610000D01*
X31710000Y-55880000D02*
X32980000Y-54610000D01*
X32980000Y-54610000D02*
X31710000Y-53340000D01*
X31710000Y-53340000D02*
X31710000Y-45720000D01*
X87630000Y-53420000D02*
X88820000Y-53420000D01*
X88820000Y-53420000D02*
X96520000Y-45720000D01*
X82550000Y-53420000D02*
X87630000Y-53420000D01*
X22860000Y-36830000D02*
X22860000Y-41910000D01*
X22860000Y-41910000D02*
X19050000Y-45720000D01*
X22860000Y-36830000D02*
X27940000Y-36830000D01*
X82550000Y-53420000D02*
X73237100Y-53420000D01*
X73237100Y-53420000D02*
X68587300Y-48770200D01*
X68587300Y-48770200D02*
X68587300Y-44423000D01*
X68587300Y-44423000D02*
X69850000Y-43160300D01*
X69850000Y-41910000D02*
X69850000Y-43160300D01*
X39370000Y-54610000D02*
X38119700Y-54610000D01*
X39370000Y-54610000D02*
X40620300Y-54610000D01*
X62230000Y-57150000D02*
X60929700Y-57150000D01*
X60929700Y-57150000D02*
X59679300Y-55899600D01*
X59679300Y-55899600D02*
X41909900Y-55899600D01*
X41909900Y-55899600D02*
X40620300Y-54610000D01*
%TO.N,+5V*%
X71139800Y-19069800D02*
X69850000Y-17780000D01*
X69850000Y-33039700D02*
X71139800Y-31749900D01*
X71139800Y-31749900D02*
X71139800Y-19069800D01*
X76200000Y-17780000D02*
X72429600Y-17780000D01*
X72429600Y-17780000D02*
X71139800Y-19069800D01*
X69850000Y-34290000D02*
X69850000Y-33039700D01*
X39370000Y-57150000D02*
X40620300Y-57150000D01*
X82550000Y-58420000D02*
X81297700Y-59672300D01*
X81297700Y-59672300D02*
X43142600Y-59672300D01*
X43142600Y-59672300D02*
X40620300Y-57150000D01*
X29210000Y-55880000D02*
X30480000Y-57150000D01*
X30480000Y-57150000D02*
X39370000Y-57150000D01*
%TO.N,VCC*%
X19050000Y-48009000D02*
X25670700Y-48009000D01*
X25670700Y-48009000D02*
X27959700Y-45720000D01*
X17780000Y-38380300D02*
X17597900Y-38562400D01*
X17597900Y-38562400D02*
X17597900Y-46556900D01*
X17597900Y-46556900D02*
X19050000Y-48009000D01*
X19050000Y-48260000D02*
X19050000Y-48009000D01*
X29210000Y-45720000D02*
X27959700Y-45720000D01*
X33020000Y-44457100D02*
X30472900Y-44457100D01*
X30472900Y-44457100D02*
X29210000Y-45720000D01*
X60929700Y-49530000D02*
X59659700Y-50800000D01*
X59659700Y-50800000D02*
X42440200Y-50800000D01*
X42440200Y-50800000D02*
X39900200Y-48260000D01*
X39900200Y-48260000D02*
X36822900Y-48260000D01*
X36822900Y-48260000D02*
X33020000Y-44457100D01*
X33020000Y-44457100D02*
X33020000Y-36830000D01*
X17780000Y-36830000D02*
X17780000Y-38380300D01*
X62230000Y-49530000D02*
X60929700Y-49530000D01*
%TO.N,Net-(D1-Pad2)*%
X27940000Y-26670000D02*
X33020000Y-26670000D01*
%TO.N,Net-(D2-Pad2)*%
X22860000Y-26670000D02*
X17780000Y-26670000D01*
%TO.N,Net-(D5-Pad1)*%
X62230000Y-36830000D02*
X62230000Y-35579700D01*
X62230000Y-35579700D02*
X63245900Y-35579700D01*
X63245900Y-35579700D02*
X63480400Y-35345200D01*
X63480400Y-35345200D02*
X63480400Y-30460400D01*
X63480400Y-30460400D02*
X62230000Y-29210000D01*
%TO.N,Net-(D5-Pad2)*%
X76200000Y-41910000D02*
X76200000Y-40659700D01*
X83820000Y-19050000D02*
X78881500Y-23988500D01*
X78881500Y-23988500D02*
X78881500Y-37978200D01*
X78881500Y-37978200D02*
X76200000Y-40659700D01*
X76200000Y-41910000D02*
X74949700Y-41910000D01*
X62230000Y-39370000D02*
X63480300Y-39370000D01*
X63480300Y-39370000D02*
X64730600Y-40620300D01*
X64730600Y-40620300D02*
X73660000Y-40620300D01*
X73660000Y-40620300D02*
X74949700Y-41910000D01*
%TO.N,Net-(J3-Pad1)*%
X88900000Y-19050000D02*
X86949700Y-19050000D01*
X62230000Y-16510000D02*
X84409700Y-16510000D01*
X84409700Y-16510000D02*
X86949700Y-19050000D01*
%TO.N,Net-(R1-Pad2)*%
X69850000Y-27940000D02*
X69850000Y-29190300D01*
X69850000Y-36830000D02*
X69850000Y-35579700D01*
X69850000Y-35579700D02*
X69303000Y-35579700D01*
X69303000Y-35579700D02*
X68567500Y-34844200D01*
X68567500Y-34844200D02*
X68567500Y-30472800D01*
X68567500Y-30472800D02*
X69850000Y-29190300D01*
%TO.N,Net-(R4-Pad1)*%
X83820000Y-45720000D02*
X81280000Y-48260000D01*
X81280000Y-48260000D02*
X69850000Y-48260000D01*
%TD*%
M02*
